<svg width="177" height="177" viewBox="0 0 177 177" fill="none" xmlns="http://www.w3.org/2000/svg">
<g filter="url(#filter0_dddddd_3251_11060)">
<mask id="path-1-inside-1_3251_11060" fill="white">
<path d="M90.4164 42.8088C91.4607 43.4398 92.3068 44.4204 92.6686 45.5876C92.8129 46.9921 92.8704 48.3881 91.9515 49.5317C91.2759 50.2405 90.7622 50.7254 89.8001 50.9659C89.8001 53.3916 89.8001 55.8172 89.8001 58.3164C90.7467 58.3164 91.6933 58.3164 92.6686 58.3164C92.6603 57.9623 92.6519 57.6083 92.6434 57.2435C92.6366 56.7794 92.6301 56.3154 92.6238 55.8513C92.6177 55.6179 92.6117 55.3845 92.6055 55.144C92.6032 54.9198 92.6009 54.6956 92.5985 54.4647C92.5948 54.2581 92.591 54.0516 92.5872 53.8388C92.6856 53.1834 92.8687 52.9796 93.3857 52.5795C93.7442 52.4842 93.7442 52.4842 94.1028 52.4898C94.2211 52.488 94.3395 52.4861 94.4614 52.4842C94.9913 52.625 95.1964 52.8708 95.537 53.2966C95.6184 53.8388 95.6184 53.8388 95.6071 54.4647C95.6036 54.8009 95.6036 54.8009 95.6001 55.144C95.591 55.4941 95.591 55.4941 95.5819 55.8513C95.5786 56.0875 95.5754 56.3237 95.572 56.567C95.5636 57.1503 95.5518 57.7333 95.537 58.3164C95.7722 58.3126 96.0074 58.3089 96.2498 58.305C97.1225 58.292 97.9951 58.2838 98.8679 58.277C99.2456 58.2734 99.6233 58.2685 100.001 58.2623C100.544 58.2536 101.087 58.2495 101.63 58.2463C101.883 58.2408 101.883 58.2408 102.141 58.2351C103.308 58.2347 103.308 58.2347 103.886 58.6372C104.261 59.217 104.326 59.8193 104.411 60.4901C104.799 62.9972 105.721 64.8109 107.697 66.4617C109.297 67.6156 110.998 68.0069 112.929 68.2201C113.574 68.3837 113.776 68.5511 114.182 69.0731C114.263 69.6153 114.263 69.6153 114.252 70.2412C114.249 70.5775 114.249 70.5775 114.245 70.9205C114.236 71.2706 114.236 71.2706 114.227 71.6278C114.224 71.864 114.22 72.1002 114.217 72.3435C114.209 72.9267 114.196 73.5098 114.182 74.0929C115.602 74.0929 117.022 74.0929 118.485 74.0929C118.485 68.3542 118.485 62.6155 118.485 56.7029C118.13 56.5845 117.775 56.4662 117.409 56.3443C116.273 55.5086 115.693 54.4441 115.459 53.0613C115.356 51.741 115.732 50.6429 116.58 49.6326C117.401 48.7754 118.152 48.3275 119.34 48.2403C121.044 48.2141 122.119 48.5618 123.373 49.7355C124.337 50.7712 124.319 51.8662 124.283 53.2293C124.14 54.6404 123.481 55.38 122.429 56.282C122.061 56.53 121.781 56.6079 121.353 56.7029C121.354 56.8029 121.355 56.903 121.355 57.006C121.371 59.4405 121.383 61.8749 121.39 64.3094C121.394 65.4866 121.399 66.6639 121.407 67.8412C121.415 68.9769 121.419 70.1125 121.421 71.2482C121.423 71.682 121.425 72.1157 121.429 72.5495C121.434 73.156 121.435 73.7624 121.435 74.369C121.437 74.5492 121.44 74.7293 121.442 74.9149C121.435 76.1242 121.435 76.1242 121.032 76.7149C120.43 77.0896 119.84 77.0499 119.154 77.0314C119.012 77.0304 118.87 77.0294 118.723 77.0283C118.27 77.0243 117.817 77.0153 117.364 77.0062C117.057 77.0026 116.749 76.9993 116.441 76.9964C115.688 76.9891 114.935 76.9751 114.182 76.9614C114.182 78.3813 114.182 79.8012 114.182 81.2641C114.743 81.2558 115.304 81.2474 115.882 81.2389C116.426 81.2333 116.969 81.2289 117.513 81.2247C117.891 81.2211 118.268 81.2162 118.646 81.21C119.189 81.2013 119.732 81.1972 120.275 81.194C120.528 81.1885 120.528 81.1885 120.786 81.1828C121.959 81.1824 121.959 81.1824 122.535 81.6046C122.807 82.0105 122.885 82.2142 122.877 82.6983C122.88 82.8758 122.88 82.8758 122.883 83.0569C122.735 83.6129 122.538 83.7899 122.07 84.1325C121.472 84.234 120.88 84.2158 120.275 84.2026C120.101 84.2016 119.927 84.2005 119.747 84.1995C119.192 84.1955 118.637 84.1865 118.081 84.1774C117.705 84.1738 117.328 84.1705 116.951 84.1676C116.028 84.1596 115.105 84.1473 114.182 84.1325C114.182 85.0791 114.182 86.0257 114.182 87.001C118.028 87.001 121.873 87.001 125.835 87.001C125.953 86.7052 126.072 86.4094 126.194 86.1046C126.831 85.1864 127.563 84.3402 128.704 84.1325C130.119 83.9991 131.493 83.9226 132.648 84.8497C133.552 85.711 134.191 86.4922 134.321 87.7664C134.338 89.2932 134.282 90.3492 133.209 91.4767C131.971 92.6208 130.998 92.8241 129.321 92.7925C127.902 92.667 127.161 92.0003 126.256 90.9451C126.014 90.5866 126.014 90.5866 125.835 89.8695C121.99 89.8695 118.144 89.8695 114.182 89.8695C114.182 90.8161 114.182 91.7626 114.182 92.7379C114.417 92.7342 114.652 92.7304 114.895 92.7265C115.767 92.7136 116.64 92.7053 117.513 92.6985C117.891 92.6949 118.268 92.69 118.646 92.6838C119.189 92.6751 119.732 92.6711 120.275 92.6679C120.528 92.6623 120.528 92.6623 120.786 92.6567C121.959 92.6563 121.959 92.6563 122.535 93.0784C122.807 93.4843 122.885 93.688 122.877 94.1722C122.879 94.2905 122.881 94.4088 122.883 94.5307C122.735 95.0868 122.538 95.2638 122.07 95.6064C121.472 95.7078 120.88 95.6897 120.275 95.6764C120.101 95.6754 119.927 95.6744 119.747 95.6733C119.192 95.6693 118.637 95.6603 118.081 95.6512C117.705 95.6476 117.328 95.6443 116.951 95.6414C116.028 95.6335 115.105 95.6211 114.182 95.6064C114.186 95.721 114.19 95.8356 114.195 95.9536C114.215 96.9338 114.143 97.7383 113.823 98.6765C113.757 98.8767 113.69 99.0768 113.622 99.283C113.57 99.4304 113.518 99.5779 113.465 99.7298C113.678 99.7315 113.892 99.7331 114.112 99.7349C114.904 99.742 115.697 99.7538 116.489 99.767C116.832 99.7721 117.175 99.7759 117.518 99.7784C118.011 99.7822 118.504 99.7906 118.997 99.7998C119.227 99.8002 119.227 99.8002 119.461 99.8005C119.605 99.804 119.749 99.8076 119.896 99.8112C120.022 99.8128 120.148 99.8144 120.278 99.816C120.845 99.9632 121.021 100.137 121.353 100.626C121.462 101.25 121.454 101.869 121.451 102.501C121.453 102.692 121.455 102.883 121.457 103.079C121.462 103.71 121.462 104.34 121.462 104.971C121.465 105.408 121.468 105.845 121.471 106.282C121.479 107.433 121.483 108.583 121.486 109.734C121.489 110.908 121.497 112.082 121.504 113.256C121.517 115.56 121.526 117.864 121.532 120.168C121.702 120.249 121.872 120.331 122.047 120.416C122.594 120.698 122.887 120.936 123.28 121.4C123.383 121.518 123.486 121.636 123.591 121.757C124.414 122.915 124.343 124.177 124.222 125.546C123.92 126.74 123.063 127.551 122.07 128.235C120.917 128.815 119.462 128.795 118.226 128.483C117.143 128.003 116.293 127.074 115.765 126.025C115.405 124.864 115.387 123.364 115.885 122.241C116.434 121.327 117.292 120.506 118.305 120.168C118.365 114.429 118.424 108.69 118.485 102.778C115.112 102.866 115.112 102.866 111.672 102.957C111.14 103.608 110.607 104.258 110.059 104.929C109.605 105.418 109.153 105.895 108.68 106.363C108.557 106.485 108.434 106.608 108.307 106.734C107.168 107.847 105.965 108.83 104.68 109.769C104.57 109.851 104.46 109.933 104.347 110.018C102.057 111.723 99.6137 113.17 97.1505 114.61C97.0189 114.688 96.8872 114.767 96.7515 114.847C95.9365 115.327 95.9365 115.327 95.537 115.327C95.5386 115.429 95.5402 115.531 95.5419 115.635C95.5577 116.694 95.5685 117.752 95.5764 118.811C95.58 119.206 95.5849 119.601 95.5911 119.996C95.5998 120.564 95.6039 121.132 95.6071 121.7C95.6108 121.877 95.6145 122.053 95.6183 122.235C95.6187 123.461 95.6187 123.461 95.1965 124.044C94.791 124.31 94.5838 124.388 94.1028 124.381C93.9253 124.383 93.9253 124.383 93.7442 124.386C93.2003 124.242 93.0097 124.022 92.6686 123.574C92.606 123.043 92.5847 122.582 92.5985 122.053C92.5996 121.907 92.6006 121.76 92.6016 121.61C92.6056 121.144 92.6146 120.678 92.6238 120.212C92.6273 119.896 92.6306 119.58 92.6336 119.263C92.6408 118.489 92.6549 117.715 92.6686 116.941C91.7811 117.355 90.8937 117.769 89.9794 118.196C89.9202 120.739 89.8611 123.283 89.8001 125.905C90.1551 126.023 90.5101 126.141 90.8758 126.263C91.7239 126.887 92.4605 127.721 92.6686 128.773C92.8036 130.187 92.8779 131.564 91.9515 132.717C91.0901 133.622 90.3089 134.26 89.0347 134.391C87.5079 134.408 86.4519 134.352 85.3244 133.278C84.1803 132.04 83.9771 131.067 84.0086 129.391C84.1341 127.971 84.8008 127.23 85.856 126.325C86.2145 126.084 86.2145 126.084 86.9316 125.905C86.8725 123.361 86.8133 120.817 86.7524 118.196C85.8649 117.781 84.9775 117.367 84.0632 116.941C84.0715 117.411 84.0798 117.882 84.0884 118.366C84.094 118.823 84.0983 119.279 84.1026 119.735C84.1062 120.052 84.1111 120.369 84.1173 120.686C84.126 121.141 84.1301 121.597 84.1332 122.053C84.1369 122.194 84.1406 122.336 84.1444 122.481C84.1447 123.131 84.1221 123.496 83.7227 124.022C83.3154 124.313 83.124 124.388 82.629 124.381C82.4515 124.383 82.4515 124.383 82.2704 124.386C81.7107 124.238 81.5379 124.047 81.1947 123.574C81.0927 122.949 81.1115 122.331 81.1247 121.7C81.1257 121.518 81.1267 121.336 81.1278 121.148C81.1318 120.567 81.1408 119.987 81.1499 119.406C81.1535 119.012 81.1568 118.618 81.1597 118.224C81.1676 117.258 81.1796 116.293 81.1947 115.327C81.0605 115.275 80.9262 115.223 80.7878 115.169C75.8522 113.148 71.1642 109.43 67.4015 105.702C67.2913 105.593 67.1811 105.485 67.0675 105.373C66.9087 105.213 66.9087 105.213 66.7467 105.05C66.6545 104.957 66.5623 104.865 66.4673 104.769C65.9628 104.194 65.5186 103.569 65.0596 102.957C62.8115 102.898 60.5633 102.838 58.247 102.778C58.3062 108.516 58.3654 114.255 58.4263 120.168C58.9588 120.434 58.9588 120.434 59.502 120.705C59.8689 121.04 59.8689 121.04 60.1743 121.4C60.3282 121.577 60.3282 121.577 60.4852 121.757C61.308 122.915 61.2366 124.177 61.1155 125.546C60.8141 126.74 59.9567 127.551 58.9641 128.235C57.8112 128.815 56.3562 128.795 55.1195 128.483C54.0365 128.003 53.1867 127.074 52.6586 126.025C52.2988 124.864 52.2813 123.364 52.779 122.241C53.3281 121.327 54.1855 120.506 55.1993 120.168C55.1996 120.068 55.1998 119.967 55.2001 119.864C55.2067 117.43 55.2173 114.996 55.2323 112.561C55.2393 111.384 55.2451 110.207 55.2479 109.029C55.2506 107.894 55.2567 106.758 55.2653 105.622C55.268 105.188 55.2694 104.755 55.2695 104.321C55.27 103.714 55.2748 103.108 55.2807 102.501C55.2793 102.231 55.2793 102.231 55.278 101.956C55.2962 100.748 55.2962 100.748 55.697 100.157C56.1215 99.893 56.3408 99.8175 56.8354 99.8112C56.9789 99.8077 57.1224 99.8041 57.2703 99.8005C57.4234 99.8003 57.5766 99.8001 57.7344 99.7998C57.8926 99.7969 58.0507 99.7939 58.2137 99.7908C58.7178 99.7821 59.2219 99.7783 59.7261 99.7746C60.0683 99.7696 60.4105 99.7642 60.7527 99.7585C61.5908 99.7453 62.4287 99.7364 63.2668 99.7298C63.2151 99.5824 63.1633 99.4349 63.11 99.283C63.0434 99.0829 62.9769 98.8827 62.9083 98.6765C62.8417 98.481 62.7752 98.2855 62.7066 98.0841C62.5143 97.2443 62.5186 96.4633 62.5497 95.6064C62.3145 95.6101 62.0793 95.6139 61.837 95.6178C60.9643 95.6307 60.0916 95.639 59.2189 95.6458C58.8412 95.6494 58.4635 95.6543 58.0858 95.6605C57.5428 95.6692 57 95.6732 56.457 95.6764C56.2038 95.682 56.2038 95.682 55.9454 95.6876C54.7729 95.688 54.7729 95.688 54.1966 95.2659C53.9247 94.86 53.8471 94.6563 53.8547 94.1722C53.8528 94.0538 53.851 93.9355 53.8491 93.8136C53.9968 93.2575 54.1938 93.0805 54.6615 92.7379C55.2601 92.6365 55.8514 92.6546 56.457 92.6679C56.6311 92.6689 56.8052 92.6699 56.9845 92.671C57.5399 92.675 58.0951 92.684 58.6504 92.6931C59.0272 92.6967 59.4039 92.7 59.7807 92.7029C60.7038 92.7108 61.6267 92.7232 62.5497 92.7379C62.5497 91.7913 62.5497 90.8447 62.5497 89.8695C58.7042 89.8695 54.8587 89.8695 50.8966 89.8695C50.7783 90.1653 50.6599 90.4611 50.538 90.7659C49.9007 91.684 49.1691 92.5303 48.0281 92.7379C46.6144 92.8712 45.2365 92.949 44.084 92.0208C43.0951 91.0614 42.4353 90.2754 42.3931 88.8592C42.3886 87.3003 42.5649 86.3779 43.6743 85.2558C44.8356 84.1886 45.8513 84.0486 47.4105 84.0779C48.8299 84.2034 49.571 84.8701 50.4757 85.9253C50.7173 86.2839 50.7173 86.2839 50.8966 87.001C54.7421 87.001 58.5877 87.001 62.5497 87.001C62.5497 86.0544 62.5497 85.1078 62.5497 84.1325C62.3145 84.1363 62.0793 84.14 61.837 84.1439C60.9643 84.1569 60.0916 84.1651 59.2189 84.1719C58.8412 84.1755 58.4635 84.1804 58.0858 84.1866C57.5428 84.1953 57 84.1994 56.457 84.2026C56.2038 84.2081 56.2038 84.2081 55.9454 84.2138C54.7729 84.2142 54.7729 84.2142 54.1966 83.792C53.9247 83.3861 53.8471 83.1824 53.8547 82.6983C53.8528 82.58 53.851 82.4617 53.8491 82.3397C53.9968 81.7837 54.1938 81.6067 54.6615 81.2641C55.2601 81.1626 55.8514 81.1808 56.457 81.194C56.6311 81.1951 56.8052 81.1961 56.9845 81.1971C57.5399 81.2011 58.0951 81.2101 58.6504 81.2193C59.0272 81.2229 59.4039 81.2261 59.7807 81.2291C60.7039 81.2363 61.6266 81.2504 62.5497 81.2641C62.5497 79.8442 62.5497 78.4243 62.5497 76.9614C62.0921 76.9697 61.6346 76.978 61.1631 76.9866C60.7193 76.9922 60.2755 76.9965 59.8317 77.0008C59.5235 77.0044 59.2154 77.0093 58.9072 77.0155C58.464 77.0242 58.0209 77.0282 57.5775 77.0314C57.3713 77.037 57.3713 77.037 57.1609 77.0426C56.5999 77.0429 56.1858 77.0157 55.7001 76.7232C55.1792 75.9472 55.285 75.1504 55.2972 74.2374C55.2971 74.0327 55.2969 73.828 55.2968 73.6171C55.2973 72.9399 55.3029 72.2629 55.3085 71.5858C55.3099 71.1166 55.3109 70.6473 55.3116 70.1781C55.3138 69.0688 55.3197 67.9596 55.3269 66.8504C55.3349 65.5875 55.3389 64.3245 55.3425 63.0615C55.35 60.4639 55.3626 57.8663 55.3786 55.2686C55.2085 55.2149 55.0385 55.1613 54.8633 55.1059C53.8327 54.7457 53.232 53.9864 52.7118 53.0501C52.2615 51.5992 52.2056 50.3966 52.8687 48.9939C53.6014 47.929 54.4411 47.1054 55.7371 46.8425C57.1834 46.7351 58.4922 46.7323 59.6701 47.6514C60.5711 48.4868 61.0544 49.2507 61.1715 50.4771C61.2145 51.7372 61.2109 52.8233 60.3984 53.8344C59.7228 54.5432 59.2092 55.0281 58.247 55.2686C58.247 61.4806 58.247 67.6927 58.247 74.0929C59.6669 74.0929 61.0868 74.0929 62.5497 74.0929C62.5414 73.7389 62.5331 73.3848 62.5245 73.02C62.5178 72.556 62.5113 72.0919 62.5049 71.6278C62.4989 71.3944 62.4929 71.161 62.4867 70.9205C62.4832 70.5843 62.4832 70.5843 62.4797 70.2412C62.4741 69.9314 62.4741 69.9314 62.4683 69.6153C62.5677 68.9536 62.7362 68.7519 63.2668 68.356C63.7631 68.2363 64.2207 68.1514 64.7235 68.0871C67.2306 67.6997 69.0442 66.7776 70.695 64.8012C71.8489 63.2013 72.2402 61.5 72.4535 59.5692C72.6224 58.9032 72.7455 58.7161 73.3065 58.3164C73.9054 58.2159 74.4963 58.2331 75.102 58.2463C75.2761 58.2474 75.4502 58.2484 75.6295 58.2494C76.1849 58.2534 76.7401 58.2624 77.2954 58.2716C77.6722 58.2752 78.0489 58.2784 78.4257 58.2814C79.3488 58.2893 80.2717 58.3016 81.1947 58.3164C81.191 58.1681 81.1872 58.0198 81.1833 57.867C81.1684 57.1951 81.1591 56.5233 81.1499 55.8513C81.1439 55.6179 81.1379 55.3845 81.1317 55.144C81.1294 54.9198 81.1271 54.6956 81.1247 54.4647C81.1209 54.2581 81.1172 54.0516 81.1133 53.8388C81.2117 53.1834 81.3949 52.9796 81.9118 52.5795C82.2704 52.4842 82.2704 52.4842 82.629 52.4898C82.7473 52.488 82.8656 52.4861 82.9875 52.4842C83.5175 52.625 83.7225 52.8708 84.0632 53.2966C84.1446 53.8388 84.1446 53.8388 84.1332 54.4647C84.1309 54.6888 84.1286 54.913 84.1262 55.144C84.1172 55.4941 84.1172 55.4941 84.108 55.8513C84.1048 56.0875 84.1015 56.3237 84.0982 56.567C84.0897 57.1502 84.0769 57.7333 84.0632 58.3164C85.0098 58.3164 85.9564 58.3164 86.9316 58.3164C86.9316 55.8907 86.9316 53.4651 86.9316 50.9659C86.6358 50.8476 86.34 50.7293 86.0353 50.6074C85.1171 49.9701 84.2708 49.2384 84.0632 48.0975C83.9298 46.6823 83.8532 45.3077 84.7803 44.1533C86.2686 42.5904 88.315 41.8776 90.4164 42.8088ZM87.4023 45.8789C87.0236 46.4323 87.0012 46.7221 87.1109 47.3804C87.3798 47.8286 87.3798 47.8286 87.828 48.0975C88.4863 48.2072 88.7761 48.1848 89.3295 47.8062C89.7082 47.2527 89.7305 46.9629 89.6208 46.3047C89.3519 45.8565 89.3519 45.8565 88.9037 45.5876C88.2455 45.4779 87.9557 45.5003 87.4023 45.8789ZM55.8492 50.1816C55.4705 50.735 55.4481 51.0248 55.5578 51.6831C55.8268 52.1313 55.8268 52.1313 56.275 52.4002C56.9332 52.5099 57.223 52.4875 57.7764 52.1088C58.1551 51.5554 58.1775 51.2656 58.0678 50.6074C57.7988 50.1592 57.7988 50.1592 57.3506 49.8903C56.6924 49.7806 56.4026 49.8029 55.8492 50.1816ZM119.235 51.3693C118.829 51.6499 118.829 51.6499 118.664 52.0416C118.594 52.6837 118.586 53.0031 118.955 53.5431C119.509 53.9217 119.799 53.9441 120.457 53.8344C120.882 53.5124 121.11 53.2484 121.342 52.7699C121.359 52.2003 121.172 51.9406 120.815 51.5038C120.169 51.1666 119.911 51.0692 119.235 51.3693ZM75.4578 61.1848C75.2212 62.0131 74.9845 62.8414 74.7407 63.6947C74.5363 64.2067 74.3402 64.6771 74.0908 65.1626C74.0299 65.2818 73.9689 65.4011 73.9061 65.5239C72.5227 68.1083 70.2636 69.6611 67.5695 70.6866C67.1919 70.791 66.8125 70.8891 66.4315 70.9807C66.2409 71.027 66.0502 71.0733 65.8537 71.121C65.6381 71.1722 65.6381 71.1722 65.4182 71.2245C65.4098 74.3663 65.4035 77.5082 65.3996 80.65C65.3978 82.109 65.3952 83.568 65.3911 85.027C65.3875 86.2995 65.3852 87.5719 65.3844 88.8444C65.384 89.5175 65.3829 90.1905 65.3803 90.8635C65.3778 91.4986 65.3771 92.1337 65.3776 92.7688C65.3775 93.1097 65.3756 93.4505 65.3736 93.7914C65.3781 95.7065 65.5184 97.5183 66.4378 99.2256C66.5334 99.4088 66.5334 99.4088 66.6308 99.5958C67.148 100.563 67.7378 101.418 68.4659 102.24C68.6448 102.45 68.6448 102.45 68.8273 102.665C73.2737 107.784 79.5258 111.221 85.4974 114.251C85.6094 114.308 85.7213 114.365 85.8366 114.424C87.2979 115.179 87.2979 115.179 88.9037 115.327C89.3803 115.174 89.3803 115.174 89.8442 114.938C90.1106 114.811 90.1106 114.811 90.3823 114.681C90.6654 114.54 90.6654 114.54 90.9542 114.397C91.1519 114.3 91.3495 114.204 91.5531 114.104C98.3572 110.733 107.926 105.705 110.838 98.1377C111.341 96.5042 111.364 94.8176 111.354 93.124C111.354 92.8834 111.354 92.6429 111.354 92.4024C111.355 91.7565 111.352 91.1107 111.35 90.4648C111.348 89.7872 111.347 89.1096 111.347 88.432C111.346 87.1521 111.343 85.8721 111.339 84.5922C111.335 83.1336 111.333 81.6751 111.332 80.2166C111.328 77.2192 111.322 74.2218 111.314 71.2245C111.142 71.1764 110.97 71.1284 110.793 71.0789C110.567 71.0152 110.341 70.9515 110.109 70.8859C109.885 70.8231 109.662 70.7603 109.431 70.6955C108.695 70.4749 108.018 70.2079 107.336 69.8575C107.217 69.7965 107.097 69.7356 106.975 69.6728C104.352 68.2689 102.902 66.0316 101.812 63.3362C101.634 62.6262 101.457 61.9163 101.274 61.1848C92.7546 61.1848 84.2353 61.1848 75.4578 61.1848ZM45.8096 87.4716C45.4309 88.025 45.4085 88.3148 45.5182 88.9731C45.7871 89.4213 45.7871 89.4213 46.2353 89.6902C46.8936 89.7999 47.1834 89.7775 47.7368 89.3989C48.1155 88.8454 48.1378 88.5557 48.0281 87.8974C47.7592 87.4492 47.7592 87.4492 47.311 87.1803C46.6528 87.0706 46.363 87.093 45.8096 87.4716ZM128.995 87.4716C128.616 88.025 128.594 88.3148 128.704 88.9731C128.973 89.4213 128.973 89.4213 129.421 89.6902C130.079 89.7999 130.369 89.7775 130.922 89.3989C131.301 88.8454 131.323 88.5557 131.214 87.8974C130.945 87.4492 130.945 87.4492 130.496 87.1803C129.838 87.0706 129.548 87.093 128.995 87.4716ZM55.8492 123.327C55.4705 123.881 55.4481 124.171 55.5578 124.829C55.8268 125.277 55.8268 125.277 56.275 125.546C56.9332 125.656 57.223 125.633 57.7764 125.255C58.1551 124.701 58.1775 124.411 58.0678 123.753C57.7988 123.305 57.7988 123.305 57.3506 123.036C56.6924 122.926 56.4026 122.949 55.8492 123.327ZM118.955 123.327C118.577 123.881 118.554 124.171 118.664 124.829C118.933 125.277 118.933 125.277 119.381 125.546C120.039 125.656 120.329 125.633 120.883 125.255C121.261 124.701 121.284 124.411 121.174 123.753C120.905 123.305 120.905 123.305 120.457 123.036C119.799 122.926 119.509 122.949 118.955 123.327ZM87.4023 129.064C87.0236 129.618 87.0012 129.908 87.1109 130.566C87.3798 131.014 87.3798 131.014 87.828 131.283C88.4863 131.393 88.7761 131.37 89.3295 130.992C89.7082 130.438 89.7305 130.148 89.6208 129.49C89.3519 129.042 89.3519 129.042 88.9037 128.773C88.2455 128.663 87.9557 128.686 87.4023 129.064Z"/>
</mask>
<path d="M90.4164 42.8088C91.4607 43.4398 92.3068 44.4204 92.6686 45.5876C92.8129 46.9921 92.8704 48.3881 91.9515 49.5317C91.2759 50.2405 90.7622 50.7254 89.8001 50.9659C89.8001 53.3916 89.8001 55.8172 89.8001 58.3164C90.7467 58.3164 91.6933 58.3164 92.6686 58.3164C92.6603 57.9623 92.6519 57.6083 92.6434 57.2435C92.6366 56.7794 92.6301 56.3154 92.6238 55.8513C92.6177 55.6179 92.6117 55.3845 92.6055 55.144C92.6032 54.9198 92.6009 54.6956 92.5985 54.4647C92.5948 54.2581 92.591 54.0516 92.5872 53.8388C92.6856 53.1834 92.8687 52.9796 93.3857 52.5795C93.7442 52.4842 93.7442 52.4842 94.1028 52.4898C94.2211 52.488 94.3395 52.4861 94.4614 52.4842C94.9913 52.625 95.1964 52.8708 95.537 53.2966C95.6184 53.8388 95.6184 53.8388 95.6071 54.4647C95.6036 54.8009 95.6036 54.8009 95.6001 55.144C95.591 55.4941 95.591 55.4941 95.5819 55.8513C95.5786 56.0875 95.5754 56.3237 95.572 56.567C95.5636 57.1503 95.5518 57.7333 95.537 58.3164C95.7722 58.3126 96.0074 58.3089 96.2498 58.305C97.1225 58.292 97.9951 58.2838 98.8679 58.277C99.2456 58.2734 99.6233 58.2685 100.001 58.2623C100.544 58.2536 101.087 58.2495 101.63 58.2463C101.883 58.2408 101.883 58.2408 102.141 58.2351C103.308 58.2347 103.308 58.2347 103.886 58.6372C104.261 59.217 104.326 59.8193 104.411 60.4901C104.799 62.9972 105.721 64.8109 107.697 66.4617C109.297 67.6156 110.998 68.0069 112.929 68.2201C113.574 68.3837 113.776 68.5511 114.182 69.0731C114.263 69.6153 114.263 69.6153 114.252 70.2412C114.249 70.5775 114.249 70.5775 114.245 70.9205C114.236 71.2706 114.236 71.2706 114.227 71.6278C114.224 71.864 114.22 72.1002 114.217 72.3435C114.209 72.9267 114.196 73.5098 114.182 74.0929C115.602 74.0929 117.022 74.0929 118.485 74.0929C118.485 68.3542 118.485 62.6155 118.485 56.7029C118.13 56.5845 117.775 56.4662 117.409 56.3443C116.273 55.5086 115.693 54.4441 115.459 53.0613C115.356 51.741 115.732 50.6429 116.58 49.6326C117.401 48.7754 118.152 48.3275 119.34 48.2403C121.044 48.2141 122.119 48.5618 123.373 49.7355C124.337 50.7712 124.319 51.8662 124.283 53.2293C124.14 54.6404 123.481 55.38 122.429 56.282C122.061 56.53 121.781 56.6079 121.353 56.7029C121.354 56.8029 121.355 56.903 121.355 57.006C121.371 59.4405 121.383 61.8749 121.39 64.3094C121.394 65.4866 121.399 66.6639 121.407 67.8412C121.415 68.9769 121.419 70.1125 121.421 71.2482C121.423 71.682 121.425 72.1157 121.429 72.5495C121.434 73.156 121.435 73.7624 121.435 74.369C121.437 74.5492 121.44 74.7293 121.442 74.9149C121.435 76.1242 121.435 76.1242 121.032 76.7149C120.43 77.0896 119.84 77.0499 119.154 77.0314C119.012 77.0304 118.87 77.0294 118.723 77.0283C118.27 77.0243 117.817 77.0153 117.364 77.0062C117.057 77.0026 116.749 76.9993 116.441 76.9964C115.688 76.9891 114.935 76.9751 114.182 76.9614C114.182 78.3813 114.182 79.8012 114.182 81.2641C114.743 81.2558 115.304 81.2474 115.882 81.2389C116.426 81.2333 116.969 81.2289 117.513 81.2247C117.891 81.2211 118.268 81.2162 118.646 81.21C119.189 81.2013 119.732 81.1972 120.275 81.194C120.528 81.1885 120.528 81.1885 120.786 81.1828C121.959 81.1824 121.959 81.1824 122.535 81.6046C122.807 82.0105 122.885 82.2142 122.877 82.6983C122.88 82.8758 122.88 82.8758 122.883 83.0569C122.735 83.6129 122.538 83.7899 122.07 84.1325C121.472 84.234 120.88 84.2158 120.275 84.2026C120.101 84.2016 119.927 84.2005 119.747 84.1995C119.192 84.1955 118.637 84.1865 118.081 84.1774C117.705 84.1738 117.328 84.1705 116.951 84.1676C116.028 84.1596 115.105 84.1473 114.182 84.1325C114.182 85.0791 114.182 86.0257 114.182 87.001C118.028 87.001 121.873 87.001 125.835 87.001C125.953 86.7052 126.072 86.4094 126.194 86.1046C126.831 85.1864 127.563 84.3402 128.704 84.1325C130.119 83.9991 131.493 83.9226 132.648 84.8497C133.552 85.711 134.191 86.4922 134.321 87.7664C134.338 89.2932 134.282 90.3492 133.209 91.4767C131.971 92.6208 130.998 92.8241 129.321 92.7925C127.902 92.667 127.161 92.0003 126.256 90.9451C126.014 90.5866 126.014 90.5866 125.835 89.8695C121.99 89.8695 118.144 89.8695 114.182 89.8695C114.182 90.8161 114.182 91.7626 114.182 92.7379C114.417 92.7342 114.652 92.7304 114.895 92.7265C115.767 92.7136 116.64 92.7053 117.513 92.6985C117.891 92.6949 118.268 92.69 118.646 92.6838C119.189 92.6751 119.732 92.6711 120.275 92.6679C120.528 92.6623 120.528 92.6623 120.786 92.6567C121.959 92.6563 121.959 92.6563 122.535 93.0784C122.807 93.4843 122.885 93.688 122.877 94.1722C122.879 94.2905 122.881 94.4088 122.883 94.5307C122.735 95.0868 122.538 95.2638 122.07 95.6064C121.472 95.7078 120.88 95.6897 120.275 95.6764C120.101 95.6754 119.927 95.6744 119.747 95.6733C119.192 95.6693 118.637 95.6603 118.081 95.6512C117.705 95.6476 117.328 95.6443 116.951 95.6414C116.028 95.6335 115.105 95.6211 114.182 95.6064C114.186 95.721 114.19 95.8356 114.195 95.9536C114.215 96.9338 114.143 97.7383 113.823 98.6765C113.757 98.8767 113.69 99.0768 113.622 99.283C113.57 99.4304 113.518 99.5779 113.465 99.7298C113.678 99.7315 113.892 99.7331 114.112 99.7349C114.904 99.742 115.697 99.7538 116.489 99.767C116.832 99.7721 117.175 99.7759 117.518 99.7784C118.011 99.7822 118.504 99.7906 118.997 99.7998C119.227 99.8002 119.227 99.8002 119.461 99.8005C119.605 99.804 119.749 99.8076 119.896 99.8112C120.022 99.8128 120.148 99.8144 120.278 99.816C120.845 99.9632 121.021 100.137 121.353 100.626C121.462 101.25 121.454 101.869 121.451 102.501C121.453 102.692 121.455 102.883 121.457 103.079C121.462 103.71 121.462 104.34 121.462 104.971C121.465 105.408 121.468 105.845 121.471 106.282C121.479 107.433 121.483 108.583 121.486 109.734C121.489 110.908 121.497 112.082 121.504 113.256C121.517 115.56 121.526 117.864 121.532 120.168C121.702 120.249 121.872 120.331 122.047 120.416C122.594 120.698 122.887 120.936 123.28 121.4C123.383 121.518 123.486 121.636 123.591 121.757C124.414 122.915 124.343 124.177 124.222 125.546C123.92 126.74 123.063 127.551 122.07 128.235C120.917 128.815 119.462 128.795 118.226 128.483C117.143 128.003 116.293 127.074 115.765 126.025C115.405 124.864 115.387 123.364 115.885 122.241C116.434 121.327 117.292 120.506 118.305 120.168C118.365 114.429 118.424 108.69 118.485 102.778C115.112 102.866 115.112 102.866 111.672 102.957C111.14 103.608 110.607 104.258 110.059 104.929C109.605 105.418 109.153 105.895 108.68 106.363C108.557 106.485 108.434 106.608 108.307 106.734C107.168 107.847 105.965 108.83 104.68 109.769C104.57 109.851 104.46 109.933 104.347 110.018C102.057 111.723 99.6137 113.17 97.1505 114.61C97.0189 114.688 96.8872 114.767 96.7515 114.847C95.9365 115.327 95.9365 115.327 95.537 115.327C95.5386 115.429 95.5402 115.531 95.5419 115.635C95.5577 116.694 95.5685 117.752 95.5764 118.811C95.58 119.206 95.5849 119.601 95.5911 119.996C95.5998 120.564 95.6039 121.132 95.6071 121.7C95.6108 121.877 95.6145 122.053 95.6183 122.235C95.6187 123.461 95.6187 123.461 95.1965 124.044C94.791 124.31 94.5838 124.388 94.1028 124.381C93.9253 124.383 93.9253 124.383 93.7442 124.386C93.2003 124.242 93.0097 124.022 92.6686 123.574C92.606 123.043 92.5847 122.582 92.5985 122.053C92.5996 121.907 92.6006 121.76 92.6016 121.61C92.6056 121.144 92.6146 120.678 92.6238 120.212C92.6273 119.896 92.6306 119.58 92.6336 119.263C92.6408 118.489 92.6549 117.715 92.6686 116.941C91.7811 117.355 90.8937 117.769 89.9794 118.196C89.9202 120.739 89.8611 123.283 89.8001 125.905C90.1551 126.023 90.5101 126.141 90.8758 126.263C91.7239 126.887 92.4605 127.721 92.6686 128.773C92.8036 130.187 92.8779 131.564 91.9515 132.717C91.0901 133.622 90.3089 134.26 89.0347 134.391C87.5079 134.408 86.4519 134.352 85.3244 133.278C84.1803 132.04 83.9771 131.067 84.0086 129.391C84.1341 127.971 84.8008 127.23 85.856 126.325C86.2145 126.084 86.2145 126.084 86.9316 125.905C86.8725 123.361 86.8133 120.817 86.7524 118.196C85.8649 117.781 84.9775 117.367 84.0632 116.941C84.0715 117.411 84.0798 117.882 84.0884 118.366C84.094 118.823 84.0983 119.279 84.1026 119.735C84.1062 120.052 84.1111 120.369 84.1173 120.686C84.126 121.141 84.1301 121.597 84.1332 122.053C84.1369 122.194 84.1406 122.336 84.1444 122.481C84.1447 123.131 84.1221 123.496 83.7227 124.022C83.3154 124.313 83.124 124.388 82.629 124.381C82.4515 124.383 82.4515 124.383 82.2704 124.386C81.7107 124.238 81.5379 124.047 81.1947 123.574C81.0927 122.949 81.1115 122.331 81.1247 121.7C81.1257 121.518 81.1267 121.336 81.1278 121.148C81.1318 120.567 81.1408 119.987 81.1499 119.406C81.1535 119.012 81.1568 118.618 81.1597 118.224C81.1676 117.258 81.1796 116.293 81.1947 115.327C81.0605 115.275 80.9262 115.223 80.7878 115.169C75.8522 113.148 71.1642 109.43 67.4015 105.702C67.2913 105.593 67.1811 105.485 67.0675 105.373C66.9087 105.213 66.9087 105.213 66.7467 105.05C66.6545 104.957 66.5623 104.865 66.4673 104.769C65.9628 104.194 65.5186 103.569 65.0596 102.957C62.8115 102.898 60.5633 102.838 58.247 102.778C58.3062 108.516 58.3654 114.255 58.4263 120.168C58.9588 120.434 58.9588 120.434 59.502 120.705C59.8689 121.04 59.8689 121.04 60.1743 121.4C60.3282 121.577 60.3282 121.577 60.4852 121.757C61.308 122.915 61.2366 124.177 61.1155 125.546C60.8141 126.74 59.9567 127.551 58.9641 128.235C57.8112 128.815 56.3562 128.795 55.1195 128.483C54.0365 128.003 53.1867 127.074 52.6586 126.025C52.2988 124.864 52.2813 123.364 52.779 122.241C53.3281 121.327 54.1855 120.506 55.1993 120.168C55.1996 120.068 55.1998 119.967 55.2001 119.864C55.2067 117.43 55.2173 114.996 55.2323 112.561C55.2393 111.384 55.2451 110.207 55.2479 109.029C55.2506 107.894 55.2567 106.758 55.2653 105.622C55.268 105.188 55.2694 104.755 55.2695 104.321C55.27 103.714 55.2748 103.108 55.2807 102.501C55.2793 102.231 55.2793 102.231 55.278 101.956C55.2962 100.748 55.2962 100.748 55.697 100.157C56.1215 99.893 56.3408 99.8175 56.8354 99.8112C56.9789 99.8077 57.1224 99.8041 57.2703 99.8005C57.4234 99.8003 57.5766 99.8001 57.7344 99.7998C57.8926 99.7969 58.0507 99.7939 58.2137 99.7908C58.7178 99.7821 59.2219 99.7783 59.7261 99.7746C60.0683 99.7696 60.4105 99.7642 60.7527 99.7585C61.5908 99.7453 62.4287 99.7364 63.2668 99.7298C63.2151 99.5824 63.1633 99.4349 63.11 99.283C63.0434 99.0829 62.9769 98.8827 62.9083 98.6765C62.8417 98.481 62.7752 98.2855 62.7066 98.0841C62.5143 97.2443 62.5186 96.4633 62.5497 95.6064C62.3145 95.6101 62.0793 95.6139 61.837 95.6178C60.9643 95.6307 60.0916 95.639 59.2189 95.6458C58.8412 95.6494 58.4635 95.6543 58.0858 95.6605C57.5428 95.6692 57 95.6732 56.457 95.6764C56.2038 95.682 56.2038 95.682 55.9454 95.6876C54.7729 95.688 54.7729 95.688 54.1966 95.2659C53.9247 94.86 53.8471 94.6563 53.8547 94.1722C53.8528 94.0538 53.851 93.9355 53.8491 93.8136C53.9968 93.2575 54.1938 93.0805 54.6615 92.7379C55.2601 92.6365 55.8514 92.6546 56.457 92.6679C56.6311 92.6689 56.8052 92.6699 56.9845 92.671C57.5399 92.675 58.0951 92.684 58.6504 92.6931C59.0272 92.6967 59.4039 92.7 59.7807 92.7029C60.7038 92.7108 61.6267 92.7232 62.5497 92.7379C62.5497 91.7913 62.5497 90.8447 62.5497 89.8695C58.7042 89.8695 54.8587 89.8695 50.8966 89.8695C50.7783 90.1653 50.6599 90.4611 50.538 90.7659C49.9007 91.684 49.1691 92.5303 48.0281 92.7379C46.6144 92.8712 45.2365 92.949 44.084 92.0208C43.0951 91.0614 42.4353 90.2754 42.3931 88.8592C42.3886 87.3003 42.5649 86.3779 43.6743 85.2558C44.8356 84.1886 45.8513 84.0486 47.4105 84.0779C48.8299 84.2034 49.571 84.8701 50.4757 85.9253C50.7173 86.2839 50.7173 86.2839 50.8966 87.001C54.7421 87.001 58.5877 87.001 62.5497 87.001C62.5497 86.0544 62.5497 85.1078 62.5497 84.1325C62.3145 84.1363 62.0793 84.14 61.837 84.1439C60.9643 84.1569 60.0916 84.1651 59.2189 84.1719C58.8412 84.1755 58.4635 84.1804 58.0858 84.1866C57.5428 84.1953 57 84.1994 56.457 84.2026C56.2038 84.2081 56.2038 84.2081 55.9454 84.2138C54.7729 84.2142 54.7729 84.2142 54.1966 83.792C53.9247 83.3861 53.8471 83.1824 53.8547 82.6983C53.8528 82.58 53.851 82.4617 53.8491 82.3397C53.9968 81.7837 54.1938 81.6067 54.6615 81.2641C55.2601 81.1626 55.8514 81.1808 56.457 81.194C56.6311 81.1951 56.8052 81.1961 56.9845 81.1971C57.5399 81.2011 58.0951 81.2101 58.6504 81.2193C59.0272 81.2229 59.4039 81.2261 59.7807 81.2291C60.7039 81.2363 61.6266 81.2504 62.5497 81.2641C62.5497 79.8442 62.5497 78.4243 62.5497 76.9614C62.0921 76.9697 61.6346 76.978 61.1631 76.9866C60.7193 76.9922 60.2755 76.9965 59.8317 77.0008C59.5235 77.0044 59.2154 77.0093 58.9072 77.0155C58.464 77.0242 58.0209 77.0282 57.5775 77.0314C57.3713 77.037 57.3713 77.037 57.1609 77.0426C56.5999 77.0429 56.1858 77.0157 55.7001 76.7232C55.1792 75.9472 55.285 75.1504 55.2972 74.2374C55.2971 74.0327 55.2969 73.828 55.2968 73.6171C55.2973 72.9399 55.3029 72.2629 55.3085 71.5858C55.3099 71.1166 55.3109 70.6473 55.3116 70.1781C55.3138 69.0688 55.3197 67.9596 55.3269 66.8504C55.3349 65.5875 55.3389 64.3245 55.3425 63.0615C55.35 60.4639 55.3626 57.8663 55.3786 55.2686C55.2085 55.2149 55.0385 55.1613 54.8633 55.1059C53.8327 54.7457 53.232 53.9864 52.7118 53.0501C52.2615 51.5992 52.2056 50.3966 52.8687 48.9939C53.6014 47.929 54.4411 47.1054 55.7371 46.8425C57.1834 46.7351 58.4922 46.7323 59.6701 47.6514C60.5711 48.4868 61.0544 49.2507 61.1715 50.4771C61.2145 51.7372 61.2109 52.8233 60.3984 53.8344C59.7228 54.5432 59.2092 55.0281 58.247 55.2686C58.247 61.4806 58.247 67.6927 58.247 74.0929C59.6669 74.0929 61.0868 74.0929 62.5497 74.0929C62.5414 73.7389 62.5331 73.3848 62.5245 73.02C62.5178 72.556 62.5113 72.0919 62.5049 71.6278C62.4989 71.3944 62.4929 71.161 62.4867 70.9205C62.4832 70.5843 62.4832 70.5843 62.4797 70.2412C62.4741 69.9314 62.4741 69.9314 62.4683 69.6153C62.5677 68.9536 62.7362 68.7519 63.2668 68.356C63.7631 68.2363 64.2207 68.1514 64.7235 68.0871C67.2306 67.6997 69.0442 66.7776 70.695 64.8012C71.8489 63.2013 72.2402 61.5 72.4535 59.5692C72.6224 58.9032 72.7455 58.7161 73.3065 58.3164C73.9054 58.2159 74.4963 58.2331 75.102 58.2463C75.2761 58.2474 75.4502 58.2484 75.6295 58.2494C76.1849 58.2534 76.7401 58.2624 77.2954 58.2716C77.6722 58.2752 78.0489 58.2784 78.4257 58.2814C79.3488 58.2893 80.2717 58.3016 81.1947 58.3164C81.191 58.1681 81.1872 58.0198 81.1833 57.867C81.1684 57.1951 81.1591 56.5233 81.1499 55.8513C81.1439 55.6179 81.1379 55.3845 81.1317 55.144C81.1294 54.9198 81.1271 54.6956 81.1247 54.4647C81.1209 54.2581 81.1172 54.0516 81.1133 53.8388C81.2117 53.1834 81.3949 52.9796 81.9118 52.5795C82.2704 52.4842 82.2704 52.4842 82.629 52.4898C82.7473 52.488 82.8656 52.4861 82.9875 52.4842C83.5175 52.625 83.7225 52.8708 84.0632 53.2966C84.1446 53.8388 84.1446 53.8388 84.1332 54.4647C84.1309 54.6888 84.1286 54.913 84.1262 55.144C84.1172 55.4941 84.1172 55.4941 84.108 55.8513C84.1048 56.0875 84.1015 56.3237 84.0982 56.567C84.0897 57.1502 84.0769 57.7333 84.0632 58.3164C85.0098 58.3164 85.9564 58.3164 86.9316 58.3164C86.9316 55.8907 86.9316 53.4651 86.9316 50.9659C86.6358 50.8476 86.34 50.7293 86.0353 50.6074C85.1171 49.9701 84.2708 49.2384 84.0632 48.0975C83.9298 46.6823 83.8532 45.3077 84.7803 44.1533C86.2686 42.5904 88.315 41.8776 90.4164 42.8088ZM87.4023 45.8789C87.0236 46.4323 87.0012 46.7221 87.1109 47.3804C87.3798 47.8286 87.3798 47.8286 87.828 48.0975C88.4863 48.2072 88.7761 48.1848 89.3295 47.8062C89.7082 47.2527 89.7305 46.9629 89.6208 46.3047C89.3519 45.8565 89.3519 45.8565 88.9037 45.5876C88.2455 45.4779 87.9557 45.5003 87.4023 45.8789ZM55.8492 50.1816C55.4705 50.735 55.4481 51.0248 55.5578 51.6831C55.8268 52.1313 55.8268 52.1313 56.275 52.4002C56.9332 52.5099 57.223 52.4875 57.7764 52.1088C58.1551 51.5554 58.1775 51.2656 58.0678 50.6074C57.7988 50.1592 57.7988 50.1592 57.3506 49.8903C56.6924 49.7806 56.4026 49.8029 55.8492 50.1816ZM119.235 51.3693C118.829 51.6499 118.829 51.6499 118.664 52.0416C118.594 52.6837 118.586 53.0031 118.955 53.5431C119.509 53.9217 119.799 53.9441 120.457 53.8344C120.882 53.5124 121.11 53.2484 121.342 52.7699C121.359 52.2003 121.172 51.9406 120.815 51.5038C120.169 51.1666 119.911 51.0692 119.235 51.3693ZM75.4578 61.1848C75.2212 62.0131 74.9845 62.8414 74.7407 63.6947C74.5363 64.2067 74.3402 64.6771 74.0908 65.1626C74.0299 65.2818 73.9689 65.4011 73.9061 65.5239C72.5227 68.1083 70.2636 69.6611 67.5695 70.6866C67.1919 70.791 66.8125 70.8891 66.4315 70.9807C66.2409 71.027 66.0502 71.0733 65.8537 71.121C65.6381 71.1722 65.6381 71.1722 65.4182 71.2245C65.4098 74.3663 65.4035 77.5082 65.3996 80.65C65.3978 82.109 65.3952 83.568 65.3911 85.027C65.3875 86.2995 65.3852 87.5719 65.3844 88.8444C65.384 89.5175 65.3829 90.1905 65.3803 90.8635C65.3778 91.4986 65.3771 92.1337 65.3776 92.7688C65.3775 93.1097 65.3756 93.4505 65.3736 93.7914C65.3781 95.7065 65.5184 97.5183 66.4378 99.2256C66.5334 99.4088 66.5334 99.4088 66.6308 99.5958C67.148 100.563 67.7378 101.418 68.4659 102.24C68.6448 102.45 68.6448 102.45 68.8273 102.665C73.2737 107.784 79.5258 111.221 85.4974 114.251C85.6094 114.308 85.7213 114.365 85.8366 114.424C87.2979 115.179 87.2979 115.179 88.9037 115.327C89.3803 115.174 89.3803 115.174 89.8442 114.938C90.1106 114.811 90.1106 114.811 90.3823 114.681C90.6654 114.54 90.6654 114.54 90.9542 114.397C91.1519 114.3 91.3495 114.204 91.5531 114.104C98.3572 110.733 107.926 105.705 110.838 98.1377C111.341 96.5042 111.364 94.8176 111.354 93.124C111.354 92.8834 111.354 92.6429 111.354 92.4024C111.355 91.7565 111.352 91.1107 111.35 90.4648C111.348 89.7872 111.347 89.1096 111.347 88.432C111.346 87.1521 111.343 85.8721 111.339 84.5922C111.335 83.1336 111.333 81.6751 111.332 80.2166C111.328 77.2192 111.322 74.2218 111.314 71.2245C111.142 71.1764 110.97 71.1284 110.793 71.0789C110.567 71.0152 110.341 70.9515 110.109 70.8859C109.885 70.8231 109.662 70.7603 109.431 70.6955C108.695 70.4749 108.018 70.2079 107.336 69.8575C107.217 69.7965 107.097 69.7356 106.975 69.6728C104.352 68.2689 102.902 66.0316 101.812 63.3362C101.634 62.6262 101.457 61.9163 101.274 61.1848C92.7546 61.1848 84.2353 61.1848 75.4578 61.1848ZM45.8096 87.4716C45.4309 88.025 45.4085 88.3148 45.5182 88.9731C45.7871 89.4213 45.7871 89.4213 46.2353 89.6902C46.8936 89.7999 47.1834 89.7775 47.7368 89.3989C48.1155 88.8454 48.1378 88.5557 48.0281 87.8974C47.7592 87.4492 47.7592 87.4492 47.311 87.1803C46.6528 87.0706 46.363 87.093 45.8096 87.4716ZM128.995 87.4716C128.616 88.025 128.594 88.3148 128.704 88.9731C128.973 89.4213 128.973 89.4213 129.421 89.6902C130.079 89.7999 130.369 89.7775 130.922 89.3989C131.301 88.8454 131.323 88.5557 131.214 87.8974C130.945 87.4492 130.945 87.4492 130.496 87.1803C129.838 87.0706 129.548 87.093 128.995 87.4716ZM55.8492 123.327C55.4705 123.881 55.4481 124.171 55.5578 124.829C55.8268 125.277 55.8268 125.277 56.275 125.546C56.9332 125.656 57.223 125.633 57.7764 125.255C58.1551 124.701 58.1775 124.411 58.0678 123.753C57.7988 123.305 57.7988 123.305 57.3506 123.036C56.6924 122.926 56.4026 122.949 55.8492 123.327ZM118.955 123.327C118.577 123.881 118.554 124.171 118.664 124.829C118.933 125.277 118.933 125.277 119.381 125.546C120.039 125.656 120.329 125.633 120.883 125.255C121.261 124.701 121.284 124.411 121.174 123.753C120.905 123.305 120.905 123.305 120.457 123.036C119.799 122.926 119.509 122.949 118.955 123.327ZM87.4023 129.064C87.0236 129.618 87.0012 129.908 87.1109 130.566C87.3798 131.014 87.3798 131.014 87.828 131.283C88.4863 131.393 88.7761 131.37 89.3295 130.992C89.7082 130.438 89.7305 130.148 89.6208 129.49C89.3519 129.042 89.3519 129.042 88.9037 128.773C88.2455 128.663 87.9557 128.686 87.4023 129.064Z" stroke="#2EC3F3" mask="url(#path-1-inside-1_3251_11060)"/>
</g>
<g filter="url(#filter1_dddddd_3251_11060)">
<mask id="path-2-inside-2_3251_11060" fill="white">
<path d="M78.7955 64.0269C78.9699 64.0256 79.1444 64.0244 79.3241 64.023C79.5161 64.0226 79.7082 64.0221 79.9061 64.0216C80.1078 64.0204 80.3095 64.0192 80.5174 64.018C81.1872 64.0145 81.8569 64.0124 82.5267 64.0106C82.7549 64.0099 82.9831 64.0091 83.2182 64.0084C84.3011 64.005 85.3839 64.0024 86.4667 64.0009C87.717 63.9992 88.9673 63.9944 90.2176 63.9872C91.3002 63.9811 92.3828 63.979 93.4655 63.9783C93.9263 63.9774 94.387 63.9753 94.8478 63.972C95.4917 63.9677 96.1354 63.9678 96.7793 63.9691C96.9706 63.9668 97.1619 63.9645 97.359 63.9621C98.6517 63.9713 98.6517 63.9713 99.2343 64.3969C99.4581 64.7356 99.6621 65.0579 99.8348 65.4252C99.8951 65.5485 99.9553 65.6718 100.017 65.7988C100.112 65.9941 100.112 65.9941 100.209 66.1935C101.855 69.4047 104.229 71.3284 107.421 72.9257C108.249 73.3417 108.249 73.3417 108.445 73.7344C108.463 74.037 108.47 74.3403 108.471 74.6434C108.473 74.9322 108.473 74.9322 108.475 75.2267C108.476 75.4389 108.476 75.651 108.477 75.8696C108.478 76.0924 108.479 76.3151 108.48 76.5446C108.484 77.2849 108.486 78.0251 108.488 78.7654C108.489 79.0205 108.489 79.2757 108.49 79.5308C108.493 80.7304 108.496 81.93 108.497 83.1296C108.499 84.5119 108.504 85.8942 108.511 87.2765C108.517 88.3461 108.519 89.4157 108.52 90.4853C108.52 91.1235 108.522 91.7616 108.526 92.3997C108.531 93.1133 108.531 93.8269 108.529 94.5405C108.533 94.8544 108.533 94.8544 108.536 95.1746C108.516 98.3054 106.633 100.378 104.514 102.482C100.64 106.214 95.7737 108.884 91.055 111.383C90.8964 111.468 90.7378 111.553 90.5744 111.64C90.4199 111.721 90.2653 111.801 90.1061 111.884C89.9695 111.956 89.8329 112.028 89.6921 112.102C88.9922 112.391 88.4364 112.527 87.696 112.324C86.3071 111.703 84.9545 111.029 83.615 110.307C83.5064 110.249 83.3979 110.191 83.2861 110.131C81.2615 109.041 79.3237 107.846 77.4298 106.542C77.2548 106.424 77.2548 106.424 77.0762 106.303C75.4234 105.179 73.889 103.942 72.41 102.598C72.3134 102.511 72.2167 102.424 72.117 102.334C70.4708 100.827 68.4236 98.7373 68.2527 96.397C68.2373 95.8069 68.2341 95.2179 68.2345 94.6276C68.2327 94.2908 68.2327 94.2908 68.2309 93.9471C68.2281 93.3333 68.2269 92.7196 68.2267 92.1059C68.2264 91.7223 68.2256 91.3386 68.2247 90.955C68.2214 89.6162 68.2199 88.2775 68.2202 86.9387C68.2204 85.6911 68.2166 84.4437 68.211 83.1961C68.2063 82.1241 68.2043 81.0521 68.2046 79.98C68.2047 79.3401 68.2036 78.7002 68.1998 78.0603C68.1957 77.3474 68.1974 76.6346 68.1995 75.9217C68.1975 75.7097 68.1955 75.4977 68.1934 75.2793C68.1949 75.0853 68.1964 74.8913 68.198 74.6914C68.1978 74.5229 68.1976 74.3544 68.1974 74.1808C68.3133 73.6008 68.556 73.3904 69.0037 73.0173C69.3279 72.819 69.3279 72.819 69.6585 72.6636C69.8435 72.5732 69.8435 72.5732 70.0321 72.481C70.1624 72.4176 70.2926 72.3542 70.4268 72.2889C73.5742 70.6806 75.516 68.361 77.0862 65.2227C77.5693 64.2612 77.7333 64.0323 78.7955 64.0269ZM78.5934 68.5732C78.4941 68.8066 78.3969 69.041 78.3019 69.2762C77.8944 70.157 77.1739 70.8663 76.5335 71.583C76.3889 71.7498 76.3889 71.7498 76.2414 71.9199C75.5838 72.6303 74.828 73.1922 74.046 73.7568C73.9447 73.8299 73.8434 73.9031 73.7391 73.9785C73.1512 74.3921 72.5505 74.7596 71.9204 75.1062C71.7048 75.2251 71.7048 75.2251 71.4848 75.3464C71.376 75.406 71.2672 75.4657 71.1551 75.5272C71.1383 78.1142 71.1257 80.7012 71.1179 83.2883C71.1142 84.4897 71.1091 85.691 71.101 86.8924C71.0932 88.0525 71.0889 89.2125 71.0871 90.3727C71.0857 90.8145 71.0831 91.2564 71.0793 91.6982C71.074 92.3188 71.0733 92.9391 71.0737 93.5597C71.0711 93.741 71.0685 93.9223 71.0659 94.1091C71.0787 96.3407 72.0254 97.7528 73.4857 99.3712C73.5832 99.4815 73.6808 99.5917 73.7812 99.7053C74.8132 100.803 76.0521 101.693 77.2506 102.598C77.4363 102.739 77.4363 102.739 77.6258 102.883C79.6251 104.392 81.6876 105.7 83.8839 106.901C84.0603 106.999 84.2367 107.097 84.4184 107.198C84.9741 107.506 85.5322 107.809 86.0913 108.111C86.2657 108.208 86.4401 108.304 86.6198 108.404C87.5452 108.902 87.5452 108.902 88.5647 109.068C89.295 108.793 89.9899 108.476 90.6853 108.122C90.8407 108.044 90.9961 107.965 91.1562 107.884C95.905 105.432 103.171 101.553 105.397 96.3235C105.552 95.797 105.604 95.3166 105.616 94.7687C105.622 94.5173 105.622 94.5173 105.629 94.2608C105.632 94.0782 105.636 93.8956 105.64 93.7074C105.644 93.514 105.648 93.3207 105.653 93.1214C105.691 91.3402 105.713 89.5587 105.731 87.7771C105.743 86.5805 105.76 85.3846 105.789 84.1883C105.818 83.0308 105.833 81.8738 105.839 80.7159C105.843 80.2754 105.852 79.8348 105.866 79.3944C106.038 77.1869 106.038 77.1869 105.315 75.1905C104.683 74.6476 103.989 74.3353 103.213 74.0498C102.401 73.7103 101.746 73.0576 101.095 72.4794C100.961 72.3627 100.828 72.246 100.69 72.1258C99.1091 70.6524 98.0328 68.7838 96.9712 66.9218C94.7553 66.8594 92.5395 66.8116 90.3228 66.7824C89.2934 66.7684 88.2645 66.7494 87.2354 66.7189C86.2415 66.6896 85.2481 66.6736 84.2538 66.6666C83.8753 66.6617 83.4967 66.652 83.1184 66.6374C80.288 66.5303 80.288 66.5303 78.5934 68.5732Z"/>
</mask>
<path d="M78.7955 64.0269C78.9699 64.0256 79.1444 64.0244 79.3241 64.023C79.5161 64.0226 79.7082 64.0221 79.9061 64.0216C80.1078 64.0204 80.3095 64.0192 80.5174 64.018C81.1872 64.0145 81.8569 64.0124 82.5267 64.0106C82.7549 64.0099 82.9831 64.0091 83.2182 64.0084C84.3011 64.005 85.3839 64.0024 86.4667 64.0009C87.717 63.9992 88.9673 63.9944 90.2176 63.9872C91.3002 63.9811 92.3828 63.979 93.4655 63.9783C93.9263 63.9774 94.387 63.9753 94.8478 63.972C95.4917 63.9677 96.1354 63.9678 96.7793 63.9691C96.9706 63.9668 97.1619 63.9645 97.359 63.9621C98.6517 63.9713 98.6517 63.9713 99.2343 64.3969C99.4581 64.7356 99.6621 65.0579 99.8348 65.4252C99.8951 65.5485 99.9553 65.6718 100.017 65.7988C100.112 65.9941 100.112 65.9941 100.209 66.1935C101.855 69.4047 104.229 71.3284 107.421 72.9257C108.249 73.3417 108.249 73.3417 108.445 73.7344C108.463 74.037 108.47 74.3403 108.471 74.6434C108.473 74.9322 108.473 74.9322 108.475 75.2267C108.476 75.4389 108.476 75.651 108.477 75.8696C108.478 76.0924 108.479 76.3151 108.48 76.5446C108.484 77.2849 108.486 78.0251 108.488 78.7654C108.489 79.0205 108.489 79.2757 108.49 79.5308C108.493 80.7304 108.496 81.93 108.497 83.1296C108.499 84.5119 108.504 85.8942 108.511 87.2765C108.517 88.3461 108.519 89.4157 108.52 90.4853C108.52 91.1235 108.522 91.7616 108.526 92.3997C108.531 93.1133 108.531 93.8269 108.529 94.5405C108.533 94.8544 108.533 94.8544 108.536 95.1746C108.516 98.3054 106.633 100.378 104.514 102.482C100.64 106.214 95.7737 108.884 91.055 111.383C90.8964 111.468 90.7378 111.553 90.5744 111.64C90.4199 111.721 90.2653 111.801 90.1061 111.884C89.9695 111.956 89.8329 112.028 89.6921 112.102C88.9922 112.391 88.4364 112.527 87.696 112.324C86.3071 111.703 84.9545 111.029 83.615 110.307C83.5064 110.249 83.3979 110.191 83.2861 110.131C81.2615 109.041 79.3237 107.846 77.4298 106.542C77.2548 106.424 77.2548 106.424 77.0762 106.303C75.4234 105.179 73.889 103.942 72.41 102.598C72.3134 102.511 72.2167 102.424 72.117 102.334C70.4708 100.827 68.4236 98.7373 68.2527 96.397C68.2373 95.8069 68.2341 95.2179 68.2345 94.6276C68.2327 94.2908 68.2327 94.2908 68.2309 93.9471C68.2281 93.3333 68.2269 92.7196 68.2267 92.1059C68.2264 91.7223 68.2256 91.3386 68.2247 90.955C68.2214 89.6162 68.2199 88.2775 68.2202 86.9387C68.2204 85.6911 68.2166 84.4437 68.211 83.1961C68.2063 82.1241 68.2043 81.0521 68.2046 79.98C68.2047 79.3401 68.2036 78.7002 68.1998 78.0603C68.1957 77.3474 68.1974 76.6346 68.1995 75.9217C68.1975 75.7097 68.1955 75.4977 68.1934 75.2793C68.1949 75.0853 68.1964 74.8913 68.198 74.6914C68.1978 74.5229 68.1976 74.3544 68.1974 74.1808C68.3133 73.6008 68.556 73.3904 69.0037 73.0173C69.3279 72.819 69.3279 72.819 69.6585 72.6636C69.8435 72.5732 69.8435 72.5732 70.0321 72.481C70.1624 72.4176 70.2926 72.3542 70.4268 72.2889C73.5742 70.6806 75.516 68.361 77.0862 65.2227C77.5693 64.2612 77.7333 64.0323 78.7955 64.0269ZM78.5934 68.5732C78.4941 68.8066 78.3969 69.041 78.3019 69.2762C77.8944 70.157 77.1739 70.8663 76.5335 71.583C76.3889 71.7498 76.3889 71.7498 76.2414 71.9199C75.5838 72.6303 74.828 73.1922 74.046 73.7568C73.9447 73.8299 73.8434 73.9031 73.7391 73.9785C73.1512 74.3921 72.5505 74.7596 71.9204 75.1062C71.7048 75.2251 71.7048 75.2251 71.4848 75.3464C71.376 75.406 71.2672 75.4657 71.1551 75.5272C71.1383 78.1142 71.1257 80.7012 71.1179 83.2883C71.1142 84.4897 71.1091 85.691 71.101 86.8924C71.0932 88.0525 71.0889 89.2125 71.0871 90.3727C71.0857 90.8145 71.0831 91.2564 71.0793 91.6982C71.074 92.3188 71.0733 92.9391 71.0737 93.5597C71.0711 93.741 71.0685 93.9223 71.0659 94.1091C71.0787 96.3407 72.0254 97.7528 73.4857 99.3712C73.5832 99.4815 73.6808 99.5917 73.7812 99.7053C74.8132 100.803 76.0521 101.693 77.2506 102.598C77.4363 102.739 77.4363 102.739 77.6258 102.883C79.6251 104.392 81.6876 105.7 83.8839 106.901C84.0603 106.999 84.2367 107.097 84.4184 107.198C84.9741 107.506 85.5322 107.809 86.0913 108.111C86.2657 108.208 86.4401 108.304 86.6198 108.404C87.5452 108.902 87.5452 108.902 88.5647 109.068C89.295 108.793 89.9899 108.476 90.6853 108.122C90.8407 108.044 90.9961 107.965 91.1562 107.884C95.905 105.432 103.171 101.553 105.397 96.3235C105.552 95.797 105.604 95.3166 105.616 94.7687C105.622 94.5173 105.622 94.5173 105.629 94.2608C105.632 94.0782 105.636 93.8956 105.64 93.7074C105.644 93.514 105.648 93.3207 105.653 93.1214C105.691 91.3402 105.713 89.5587 105.731 87.7771C105.743 86.5805 105.76 85.3846 105.789 84.1883C105.818 83.0308 105.833 81.8738 105.839 80.7159C105.843 80.2754 105.852 79.8348 105.866 79.3944C106.038 77.1869 106.038 77.1869 105.315 75.1905C104.683 74.6476 103.989 74.3353 103.213 74.0498C102.401 73.7103 101.746 73.0576 101.095 72.4794C100.961 72.3627 100.828 72.246 100.69 72.1258C99.1091 70.6524 98.0328 68.7838 96.9712 66.9218C94.7553 66.8594 92.5395 66.8116 90.3228 66.7824C89.2934 66.7684 88.2645 66.7494 87.2354 66.7189C86.2415 66.6896 85.2481 66.6736 84.2538 66.6666C83.8753 66.6617 83.4967 66.652 83.1184 66.6374C80.288 66.5303 80.288 66.5303 78.5934 68.5732Z" stroke="#2EC3F3" mask="url(#path-2-inside-2_3251_11060)"/>
</g>
<g filter="url(#filter2_dddddd_3251_11060)">
<path d="M86.7153 83.085C87.8245 82.7392 89.2504 82.7296 90.3022 83.1905C91.2883 83.7909 92.0792 84.7128 92.4223 85.7979C92.5648 87.1966 92.5988 88.4826 91.7573 89.5313C91.1066 90.2133 90.6021 90.69 89.7455 90.8799L89.5453 90.9249L89.5502 91.1309L89.562 91.5967L89.5893 93.3096L89.6039 94.0547C89.6126 94.4083 89.617 94.7623 89.6205 95.1182V95.1202C89.6242 95.3268 89.6266 95.5337 89.6303 95.7462C89.5844 96.0522 89.5259 96.2249 89.435 96.3633C89.3437 96.5023 89.208 96.6264 88.9692 96.8116C88.8199 96.8511 88.7561 96.8672 88.6938 96.8751C88.6255 96.8836 88.5553 96.8828 88.3696 96.8799H88.3618C88.3522 96.8801 88.3497 96.8808 88.3403 96.8809H88.2953C88.2945 96.8809 88.2863 96.8819 88.2846 96.8819H88.2289C88.2191 96.8821 88.233 96.8827 88.2231 96.8829H88.184C88.1786 96.883 88.1669 96.8838 88.1616 96.8839C88.1484 96.8841 88.1524 96.8836 88.1391 96.8839C88.1278 96.884 88.1054 96.8847 88.0942 96.8848H88.0405C87.8229 96.8235 87.6801 96.746 87.5571 96.6446C87.4319 96.5413 87.321 96.4085 87.1694 96.2188C87.1351 95.983 87.1191 95.8653 87.1118 95.7393C87.1037 95.6001 87.106 95.4485 87.1118 95.1202V95.1182C87.1141 94.8871 87.1162 94.6561 87.1186 94.418C87.1246 94.1739 87.131 93.9298 87.1371 93.6856V93.6827C87.1407 93.4356 87.144 93.1885 87.1469 92.9415C87.1554 92.338 87.1673 91.7343 87.1821 91.1309L87.186 90.9424L87.0073 90.8858C86.8392 90.8327 86.6706 90.7803 86.4975 90.7256H86.4985C85.5543 90.3955 84.9924 89.7061 84.4975 88.7881C84.0986 87.5375 84.0972 86.5509 84.476 85.2999C84.9782 84.3442 85.7511 83.573 86.7153 83.085ZM88.0707 85.462C87.7972 85.5099 87.5521 85.6321 87.2612 85.8311L87.2221 85.8575L87.1957 85.8965C86.9968 86.1873 86.8755 86.4326 86.8276 86.7061C86.7806 86.9746 86.8093 87.2476 86.8647 87.5801L86.8725 87.627L86.8969 87.6671C87.025 87.8805 87.1086 88.0252 87.225 88.1417C87.3415 88.2581 87.4861 88.3427 87.6996 88.4708L87.7397 88.4952L87.7866 88.503C88.1193 88.5584 88.3929 88.5871 88.6616 88.5401C88.9351 88.4922 89.1803 88.3699 89.4711 88.171L89.5092 88.1446L89.5356 88.1055C89.7346 87.8147 89.8568 87.5695 89.9047 87.296C89.9517 87.0275 89.923 86.7545 89.8676 86.4219L89.8598 86.3751L89.8354 86.335L89.6664 86.0616C89.6147 85.9842 89.5646 85.9187 89.5063 85.8604C89.3899 85.744 89.2461 85.6594 89.0327 85.5313L88.9916 85.5069L88.9448 85.4991C88.6122 85.4437 88.3392 85.415 88.0707 85.462Z" stroke="#2EC3F3" stroke-width="0.5"/>
</g>
<defs>
<filter id="filter0_dddddd_3251_11060" x="5.72205e-05" y="-3.8147e-06" width="176.717" height="176.786" filterUnits="userSpaceOnUse" color-interpolation-filters="sRGB">
<feFlood flood-opacity="0" result="BackgroundImageFix"/>
<feColorMatrix in="SourceAlpha" type="matrix" values="0 0 0 0 0 0 0 0 0 0 0 0 0 0 0 0 0 0 127 0" result="hardAlpha"/>
<feOffset dx="-5.24017" dy="5.24017"/>
<feGaussianBlur stdDeviation="7.51965"/>
<feColorMatrix type="matrix" values="0 0 0 0 0.00392157 0 0 0 0 0.223529 0 0 0 0 0.454902 0 0 0 1 0"/>
<feBlend mode="normal" in2="BackgroundImageFix" result="effect1_dropShadow_3251_11060"/>
<feColorMatrix in="SourceAlpha" type="matrix" values="0 0 0 0 0 0 0 0 0 0 0 0 0 0 0 0 0 0 127 0" result="hardAlpha"/>
<feOffset dy="-7.86026"/>
<feGaussianBlur stdDeviation="7.84061"/>
<feColorMatrix type="matrix" values="0 0 0 0 0.00392157 0 0 0 0 0.223529 0 0 0 0 0.454902 0 0 0 1 0"/>
<feBlend mode="normal" in2="effect1_dropShadow_3251_11060" result="effect2_dropShadow_3251_11060"/>
<feColorMatrix in="SourceAlpha" type="matrix" values="0 0 0 0 0 0 0 0 0 0 0 0 0 0 0 0 0 0 127 0" result="hardAlpha"/>
<feOffset/>
<feGaussianBlur stdDeviation="2.22288"/>
<feColorMatrix type="matrix" values="0 0 0 0 0.00392157 0 0 0 0 0.223529 0 0 0 0 0.454902 0 0 0 1 0"/>
<feBlend mode="normal" in2="effect2_dropShadow_3251_11060" result="effect3_dropShadow_3251_11060"/>
<feColorMatrix in="SourceAlpha" type="matrix" values="0 0 0 0 0 0 0 0 0 0 0 0 0 0 0 0 0 0 127 0" result="hardAlpha"/>
<feOffset/>
<feGaussianBlur stdDeviation="4.44576"/>
<feColorMatrix type="matrix" values="0 0 0 0 0.00392157 0 0 0 0 0.223529 0 0 0 0 0.454902 0 0 0 1 0"/>
<feBlend mode="normal" in2="effect3_dropShadow_3251_11060" result="effect4_dropShadow_3251_11060"/>
<feColorMatrix in="SourceAlpha" type="matrix" values="0 0 0 0 0 0 0 0 0 0 0 0 0 0 0 0 0 0 127 0" result="hardAlpha"/>
<feOffset/>
<feGaussianBlur stdDeviation="7.62131"/>
<feColorMatrix type="matrix" values="0 0 0 0 0.00784314 0 0 0 0 0.203922 0 0 0 0 0.403922 0 0 0 1 0"/>
<feBlend mode="normal" in2="effect4_dropShadow_3251_11060" result="effect5_dropShadow_3251_11060"/>
<feColorMatrix in="SourceAlpha" type="matrix" values="0 0 0 0 0 0 0 0 0 0 0 0 0 0 0 0 0 0 127 0" result="hardAlpha"/>
<feOffset/>
<feGaussianBlur stdDeviation="21.1965"/>
<feColorMatrix type="matrix" values="0 0 0 0 0 0 0 0 0 0.231373 0 0 0 0 0.466667 0 0 0 1 0"/>
<feBlend mode="normal" in2="effect5_dropShadow_3251_11060" result="effect6_dropShadow_3251_11060"/>
<feBlend mode="normal" in="SourceGraphic" in2="effect6_dropShadow_3251_11060" result="shape"/>
</filter>
<filter id="filter1_dddddd_3251_11060" x="25.8004" y="21.5691" width="125.129" height="133.245" filterUnits="userSpaceOnUse" color-interpolation-filters="sRGB">
<feFlood flood-opacity="0" result="BackgroundImageFix"/>
<feColorMatrix in="SourceAlpha" type="matrix" values="0 0 0 0 0 0 0 0 0 0 0 0 0 0 0 0 0 0 127 0" result="hardAlpha"/>
<feOffset dx="-5.24017" dy="5.24017"/>
<feGaussianBlur stdDeviation="7.51965"/>
<feColorMatrix type="matrix" values="0 0 0 0 0.00392157 0 0 0 0 0.223529 0 0 0 0 0.454902 0 0 0 1 0"/>
<feBlend mode="normal" in2="BackgroundImageFix" result="effect1_dropShadow_3251_11060"/>
<feColorMatrix in="SourceAlpha" type="matrix" values="0 0 0 0 0 0 0 0 0 0 0 0 0 0 0 0 0 0 127 0" result="hardAlpha"/>
<feOffset dy="-7.86026"/>
<feGaussianBlur stdDeviation="7.84061"/>
<feColorMatrix type="matrix" values="0 0 0 0 0.00392157 0 0 0 0 0.223529 0 0 0 0 0.454902 0 0 0 1 0"/>
<feBlend mode="normal" in2="effect1_dropShadow_3251_11060" result="effect2_dropShadow_3251_11060"/>
<feColorMatrix in="SourceAlpha" type="matrix" values="0 0 0 0 0 0 0 0 0 0 0 0 0 0 0 0 0 0 127 0" result="hardAlpha"/>
<feOffset/>
<feGaussianBlur stdDeviation="2.22288"/>
<feColorMatrix type="matrix" values="0 0 0 0 0.00392157 0 0 0 0 0.223529 0 0 0 0 0.454902 0 0 0 1 0"/>
<feBlend mode="normal" in2="effect2_dropShadow_3251_11060" result="effect3_dropShadow_3251_11060"/>
<feColorMatrix in="SourceAlpha" type="matrix" values="0 0 0 0 0 0 0 0 0 0 0 0 0 0 0 0 0 0 127 0" result="hardAlpha"/>
<feOffset/>
<feGaussianBlur stdDeviation="4.44576"/>
<feColorMatrix type="matrix" values="0 0 0 0 0.00392157 0 0 0 0 0.223529 0 0 0 0 0.454902 0 0 0 1 0"/>
<feBlend mode="normal" in2="effect3_dropShadow_3251_11060" result="effect4_dropShadow_3251_11060"/>
<feColorMatrix in="SourceAlpha" type="matrix" values="0 0 0 0 0 0 0 0 0 0 0 0 0 0 0 0 0 0 127 0" result="hardAlpha"/>
<feOffset/>
<feGaussianBlur stdDeviation="7.62131"/>
<feColorMatrix type="matrix" values="0 0 0 0 0.00784314 0 0 0 0 0.203922 0 0 0 0 0.403922 0 0 0 1 0"/>
<feBlend mode="normal" in2="effect4_dropShadow_3251_11060" result="effect5_dropShadow_3251_11060"/>
<feColorMatrix in="SourceAlpha" type="matrix" values="0 0 0 0 0 0 0 0 0 0 0 0 0 0 0 0 0 0 127 0" result="hardAlpha"/>
<feOffset/>
<feGaussianBlur stdDeviation="21.1965"/>
<feColorMatrix type="matrix" values="0 0 0 0 0 0 0 0 0 0.231373 0 0 0 0 0.466667 0 0 0 1 0"/>
<feBlend mode="normal" in2="effect5_dropShadow_3251_11060" result="effect6_dropShadow_3251_11060"/>
<feBlend mode="normal" in="SourceGraphic" in2="effect6_dropShadow_3251_11060" result="shape"/>
</filter>
<filter id="filter2_dddddd_3251_11060" x="41.5518" y="40.191" width="93.5926" height="99.3378" filterUnits="userSpaceOnUse" color-interpolation-filters="sRGB">
<feFlood flood-opacity="0" result="BackgroundImageFix"/>
<feColorMatrix in="SourceAlpha" type="matrix" values="0 0 0 0 0 0 0 0 0 0 0 0 0 0 0 0 0 0 127 0" result="hardAlpha"/>
<feOffset dx="-5.24017" dy="5.24017"/>
<feGaussianBlur stdDeviation="7.51965"/>
<feColorMatrix type="matrix" values="0 0 0 0 0.00392157 0 0 0 0 0.223529 0 0 0 0 0.454902 0 0 0 1 0"/>
<feBlend mode="normal" in2="BackgroundImageFix" result="effect1_dropShadow_3251_11060"/>
<feColorMatrix in="SourceAlpha" type="matrix" values="0 0 0 0 0 0 0 0 0 0 0 0 0 0 0 0 0 0 127 0" result="hardAlpha"/>
<feOffset dy="-7.86026"/>
<feGaussianBlur stdDeviation="7.84061"/>
<feColorMatrix type="matrix" values="0 0 0 0 0.00392157 0 0 0 0 0.223529 0 0 0 0 0.454902 0 0 0 1 0"/>
<feBlend mode="normal" in2="effect1_dropShadow_3251_11060" result="effect2_dropShadow_3251_11060"/>
<feColorMatrix in="SourceAlpha" type="matrix" values="0 0 0 0 0 0 0 0 0 0 0 0 0 0 0 0 0 0 127 0" result="hardAlpha"/>
<feOffset/>
<feGaussianBlur stdDeviation="2.22288"/>
<feColorMatrix type="matrix" values="0 0 0 0 0.00392157 0 0 0 0 0.223529 0 0 0 0 0.454902 0 0 0 1 0"/>
<feBlend mode="normal" in2="effect2_dropShadow_3251_11060" result="effect3_dropShadow_3251_11060"/>
<feColorMatrix in="SourceAlpha" type="matrix" values="0 0 0 0 0 0 0 0 0 0 0 0 0 0 0 0 0 0 127 0" result="hardAlpha"/>
<feOffset/>
<feGaussianBlur stdDeviation="4.44576"/>
<feColorMatrix type="matrix" values="0 0 0 0 0.00392157 0 0 0 0 0.223529 0 0 0 0 0.454902 0 0 0 1 0"/>
<feBlend mode="normal" in2="effect3_dropShadow_3251_11060" result="effect4_dropShadow_3251_11060"/>
<feColorMatrix in="SourceAlpha" type="matrix" values="0 0 0 0 0 0 0 0 0 0 0 0 0 0 0 0 0 0 127 0" result="hardAlpha"/>
<feOffset/>
<feGaussianBlur stdDeviation="7.62131"/>
<feColorMatrix type="matrix" values="0 0 0 0 0.00784314 0 0 0 0 0.203922 0 0 0 0 0.403922 0 0 0 1 0"/>
<feBlend mode="normal" in2="effect4_dropShadow_3251_11060" result="effect5_dropShadow_3251_11060"/>
<feColorMatrix in="SourceAlpha" type="matrix" values="0 0 0 0 0 0 0 0 0 0 0 0 0 0 0 0 0 0 127 0" result="hardAlpha"/>
<feOffset/>
<feGaussianBlur stdDeviation="21.1965"/>
<feColorMatrix type="matrix" values="0 0 0 0 0 0 0 0 0 0.231373 0 0 0 0 0.466667 0 0 0 1 0"/>
<feBlend mode="normal" in2="effect5_dropShadow_3251_11060" result="effect6_dropShadow_3251_11060"/>
<feBlend mode="normal" in="SourceGraphic" in2="effect6_dropShadow_3251_11060" result="shape"/>
</filter>
</defs>
</svg>
