<svg width="255" height="76" viewBox="0 0 255 76" fill="none" xmlns="http://www.w3.org/2000/svg">
<g clip-path="url(#clip0_102_457)">
<path d="M66.29 74.7H56.73L49.08 54.04H17.33L10.06 74.7H0.5L28.42 0.5H37.6L66.28 74.7H66.29ZM46.01 46.02L34.15 14.27C33.77 13.5 33.38 11.98 33 9.3H32.62C32.24 11.59 31.85 13.12 31.47 14.27L20 46.02H46.01ZM114.1 23.83L82.35 67.43H113.33V74.7H69.73V72.02L101.09 28.8H72.79V21.53H113.71V23.82H114.09L114.1 23.83ZM164.97 74.7H156.56V66.29H156.18C152.74 72.79 147.38 75.85 139.73 75.85C127.11 75.85 120.61 68.2 120.61 53.28V21.53H129.02V52.13C129.02 63.22 133.23 68.96 142.02 68.96C146.23 68.96 149.67 67.43 152.35 64.37C155.03 61.31 156.17 57.48 156.17 52.51V21.53H164.58V74.69H164.96L164.97 74.7ZM207.04 30.33C205.51 29.18 203.22 28.8 200.54 28.8C196.71 28.8 193.66 30.71 191.36 34.15C189.06 37.59 187.92 42.18 187.92 47.92V75.08H179.51V21.54H187.92V32.63H188.3C189.45 28.81 191.36 26.13 193.66 23.83C195.95 21.54 199.01 20.77 202.07 20.77C204.37 20.77 205.9 21.15 207.04 21.53V30.33ZM254.47 50.22H216.99C216.99 56.34 218.52 60.93 221.58 63.99C224.64 67.05 228.85 68.58 234.2 68.58C240.32 68.58 245.67 66.67 250.65 62.84V70.87C246.06 74.31 239.94 75.84 232.29 75.84C224.64 75.84 218.9 73.55 214.7 68.57C210.49 63.6 208.19 57.1 208.19 48.3C208.19 42.95 209.34 38.36 211.25 33.77C213.54 29.56 216.22 26.12 220.05 23.83C223.87 21.54 228.08 20.39 232.67 20.39C239.55 20.39 244.91 22.69 248.73 27.28C252.55 31.87 254.47 37.99 254.47 46.02V50.22ZM245.67 42.96C245.67 37.99 244.52 34.16 242.23 31.49C239.94 28.81 236.88 27.28 232.67 27.28C228.85 27.28 225.41 28.81 222.73 31.49C220.05 34.17 218.14 37.99 217.38 42.58H245.69V42.96H245.67Z" fill="#C9CAD5"/>
</g>
<defs>
<clipPath id="clip0_102_457">
<rect width="253.97" height="75.35" fill="white" transform="translate(0.5 0.5)"/>
</clipPath>
</defs>
</svg>
