<svg width="190" height="65" viewBox="0 0 190 65" fill="none" xmlns="http://www.w3.org/2000/svg">
<g clip-path="url(#clip0_102_460)">
<path d="M50.04 45.2398C50.04 47.7798 50.31 49.8298 50.79 51.3398C51.34 52.8498 52.02 54.4898 52.98 56.2698C53.32 56.8198 53.46 57.3698 53.46 57.8498C53.46 58.5298 53.05 59.2198 52.16 59.9098L47.84 62.7898C47.22 63.1998 46.61 63.4098 46.06 63.4098C45.37 63.4098 44.69 63.0698 44 62.4498C43.04 61.4198 42.22 60.3298 41.53 59.2298C40.84 58.0698 40.16 56.7598 39.41 55.1898C34.07 61.4898 27.35 64.6498 19.27 64.6498C13.51 64.6498 8.92 63.0098 5.57 59.7198C2.21 56.4298 0.5 52.0498 0.5 46.5698C0.5 40.7498 2.56 36.0198 6.73 32.4598C10.91 28.8998 16.46 27.1198 23.52 27.1198C25.85 27.1198 28.25 27.3298 30.78 27.6698C33.32 28.0098 35.92 28.5598 38.66 29.1798V24.1798C38.66 18.9698 37.56 15.3398 35.44 13.2198C33.25 11.0998 29.55 10.0698 24.27 10.0698C21.87 10.0698 19.41 10.3398 16.87 10.9598C14.33 11.5798 11.87 12.3298 9.47 13.2898C8.37 13.7698 7.55 14.0398 7.07 14.1798C6.59 14.3198 6.25 14.3898 5.97 14.3898C5.01 14.3898 4.53 13.6998 4.53 12.2698V8.90977C4.53 7.80977 4.67 6.98977 5.01 6.50977C5.35 6.02977 5.97 5.54977 6.93 5.06977C9.33 3.83977 12.21 2.80977 15.56 1.98977C18.92 1.09977 22.48 0.689766 26.25 0.689766C34.4 0.689766 40.36 2.53977 44.2 6.23977C47.97 9.93977 49.89 15.5598 49.89 23.0898V45.2898H50.03L50.04 45.2398ZM22.22 55.6498C24.48 55.6498 26.81 55.2398 29.28 54.4198C31.75 53.5998 33.94 52.0898 35.79 50.0298C36.89 48.7298 37.71 47.2898 38.12 45.6498C38.53 44.0098 38.81 42.0198 38.81 39.6898V36.8098C36.82 36.3298 34.7 35.9198 32.51 35.6398C30.32 35.3698 28.19 35.2298 26.07 35.2298C21.48 35.2298 18.12 36.1198 15.86 37.9698C13.6 39.8198 12.5 42.4198 12.5 45.8498C12.5 49.0698 13.32 51.4698 15.04 53.1098C16.68 54.8198 19.08 55.6498 22.23 55.6498H22.22ZM77.24 63.0498C76.01 63.0498 75.18 62.8398 74.64 62.3598C74.09 61.9498 73.61 60.9898 73.2 59.6898L57.09 6.72977C56.68 5.35977 56.47 4.46977 56.47 3.98977C56.47 2.88977 57.02 2.27977 58.11 2.27977H64.82C66.12 2.27977 67.01 2.48977 67.49 2.96977C68.04 3.37977 68.45 4.33977 68.86 5.63977L80.37 50.9998L91.06 5.63977C91.4 4.26977 91.81 3.37977 92.36 2.96977C92.91 2.55977 93.87 2.27977 95.1 2.27977H100.58C101.88 2.27977 102.77 2.48977 103.32 2.96977C103.87 3.37977 104.35 4.33977 104.62 5.63977L115.45 51.5398L127.3 5.63977C127.71 4.26977 128.19 3.37977 128.67 2.96977C129.22 2.55977 130.11 2.27977 131.34 2.27977H137.71C138.81 2.27977 139.42 2.82977 139.42 3.98977C139.42 4.32977 139.35 4.67977 139.28 5.08977C139.21 5.49977 139.07 6.04977 138.8 6.79977L122.29 59.7598C121.88 61.1298 121.4 62.0198 120.85 62.4298C120.3 62.8398 119.41 63.1098 118.25 63.1098H112.36C111.06 63.1098 110.17 62.8998 109.62 62.4298C109.07 61.9498 108.59 61.0598 108.32 59.6898L97.7 15.4998L87.15 59.6198C86.81 60.9898 86.4 61.8798 85.85 62.3598C85.3 62.8398 84.34 63.0498 83.11 63.0498H77.22H77.24ZM165.28 64.8998C161.72 64.8998 158.15 64.4898 154.73 63.6698C151.3 62.8498 148.63 61.9598 146.85 60.9298C145.75 60.3098 145 59.6298 144.73 59.0098C144.46 58.3898 144.32 57.7098 144.32 57.0898V53.5998C144.32 52.1598 144.87 51.4798 145.9 51.4798C146.31 51.4798 146.72 51.5498 147.13 51.6898C147.54 51.8298 148.16 52.0998 148.84 52.3698C151.17 53.3998 153.7 54.2198 156.38 54.7698C159.12 55.3198 161.79 55.5898 164.53 55.5898C168.85 55.5898 172.2 54.8398 174.53 53.3298C176.86 51.8198 178.09 49.6298 178.09 46.8198C178.09 44.8998 177.47 43.3298 176.24 42.0198C175.01 40.7198 172.68 39.5498 169.32 38.4598L159.39 35.3798C154.39 33.7998 150.69 31.4698 148.43 28.3898C146.17 25.3798 145 22.0198 145 18.4598C145 15.5798 145.62 13.0498 146.85 10.8498C148.08 8.65977 149.73 6.73977 151.78 5.22977C153.84 3.64977 156.17 2.48977 158.91 1.66977C161.65 0.849766 164.53 0.509766 167.54 0.509766C169.05 0.509766 170.62 0.579766 172.13 0.779766C173.71 0.989766 175.14 1.25977 176.58 1.52977C177.95 1.86977 179.25 2.21977 180.49 2.62977C181.73 3.03977 182.68 3.44977 183.37 3.85977C184.33 4.40977 185.01 4.95977 185.43 5.56977C185.84 6.11977 186.05 6.86977 186.05 7.82977V11.0498C186.05 12.4898 185.5 13.2398 184.47 13.2398C183.92 13.2398 183.03 12.9698 181.87 12.4198C177.96 10.6398 173.58 9.74977 168.72 9.74977C164.81 9.74977 161.73 10.3698 159.61 11.6698C157.49 12.9698 156.39 14.9598 156.39 17.7698C156.39 19.6898 157.07 21.3298 158.45 22.6298C159.82 23.9298 162.36 25.2298 165.99 26.3998L175.72 29.4798C180.65 31.0598 184.22 33.2498 186.34 36.0598C188.46 38.8698 189.49 42.0898 189.49 45.6498C189.49 48.5998 188.87 51.2698 187.71 53.5998C186.48 55.9298 184.83 57.9898 182.71 59.6298C180.59 61.3398 178.05 62.5798 175.1 63.4698C172.02 64.4298 168.8 64.9098 165.3 64.9098L165.28 64.8998Z" fill="#C9CAD5"/>
</g>
<defs>
<clipPath id="clip0_102_460">
<rect width="188.96" height="64.4" fill="white" transform="translate(0.5 0.5)"/>
</clipPath>
</defs>
</svg>
